<?xml version="1.0" encoding="utf-8"?>
<!-- Generator: Adobe Illustrator 16.0.0, SVG Export Plug-In . SVG Version: 6.00 Build 0)  -->
<!DOCTYPE svg PUBLIC "-//W3C//DTD SVG 1.1//EN" "http://www.w3.org/Graphics/SVG/1.1/DTD/svg11.dtd">
<svg version="1.1" id="Layer_1" xmlns="http://www.w3.org/2000/svg" xmlns:xlink="http://www.w3.org/1999/xlink" x="0px" y="0px"
	 width="300px" height="92px" viewBox="0 0 300 92" enable-background="new 0 0 300 92" xml:space="preserve">
<g>
	<circle fill="#2C4BFF" cx="31.936" cy="46.064" r="29.846"/>
	<circle fill="none" cx="31.873" cy="45.936" r="29.845"/>
	<g>
		<path fill-rule="evenodd" clip-rule="evenodd" fill="#FFFFFF" d="M44.296,41.367L23.117,53.631c0,0-0.941-7.689,4.205-11.555
			c4.26-3.202,14.283-8.561,14.283-8.561"/>
		<path fill-rule="evenodd" clip-rule="evenodd" fill="#FFFFFF" d="M55.809,40.409c1.585,9.479-3.642,21.109-12.451,26.196
			c-11.336,6.545-25.854,2.653-32.399-8.682c-6.546-11.337-2.655-25.854,8.681-32.4c11.338-6.545,25.855-2.655,32.4,8.682
			c0.104,0.179,1.01,1.742,1.049,2.105l-9.214,5.284c-0.163-0.349-0.748-1.792-0.943-2.13c-3.644-6.31-12.029-9.183-18.338-5.54
			c-6.31,3.642-9.033,12.651-5.391,18.961c3.643,6.309,12.996,9.327,19.305,5.685c2.05-1.185,5.82-4.009,7.491-8.296
			C48.3,44.367,50.515,42.545,55.809,40.409z"/>
	</g>
	<g>
		<path fill="#080847" d="M89.136,36.461c-0.112,0.119-0.267,0.179-0.463,0.179H76.076c-0.141,0-0.211,0.075-0.211,0.224v4.207
			c0,0.149,0.07,0.224,0.211,0.224h7.794c0.196,0,0.351,0.06,0.463,0.179c0.112,0.12,0.168,0.284,0.168,0.493v5.818
			c0,0.209-0.057,0.373-0.168,0.492c-0.112,0.119-0.267,0.179-0.463,0.179h-7.794c-0.141,0-0.211,0.075-0.211,0.224v4.654
			c0,0.149,0.07,0.224,0.211,0.224h12.597c0.196,0,0.351,0.061,0.463,0.179c0.112,0.12,0.168,0.284,0.168,0.492v5.863
			c0,0.209-0.056,0.373-0.168,0.492s-0.267,0.179-0.463,0.179H68.577c-0.197,0-0.352-0.06-0.463-0.179
			c-0.112-0.119-0.168-0.283-0.168-0.492V30.106c0-0.208,0.056-0.373,0.168-0.492c0.112-0.119,0.267-0.179,0.463-0.179h20.096
			c0.196,0,0.351,0.061,0.463,0.179c0.112,0.12,0.168,0.284,0.168,0.492v5.862C89.305,36.178,89.249,36.342,89.136,36.461z"/>
		<path fill="#080847" d="M113.783,49.215c0,2.148-0.31,4.058-0.927,5.729c-0.674,1.819-1.727,3.305-3.16,4.452
			c-1.432,1.149-3.146,1.724-5.14,1.724c-2.051,0-3.567-0.687-4.55-2.059c-0.057-0.06-0.112-0.082-0.168-0.067
			c-0.057,0.016-0.084,0.067-0.084,0.156v8.995c0,0.209-0.057,0.373-0.168,0.492c-0.112,0.119-0.267,0.18-0.463,0.18h-6.657
			c-0.197,0-0.351-0.061-0.463-0.18s-0.168-0.283-0.168-0.492V38.161c0-0.208,0.056-0.373,0.168-0.492
			c0.112-0.119,0.267-0.179,0.463-0.179h6.657c0.196,0,0.351,0.06,0.463,0.179c0.112,0.12,0.168,0.284,0.168,0.492v1.343
			c0,0.089,0.028,0.149,0.084,0.179c0.056,0.03,0.112,0,0.168-0.089c1.039-1.64,2.668-2.461,4.887-2.461
			c1.881,0,3.574,0.634,5.077,1.902c1.502,1.269,2.563,2.992,3.181,5.169C113.572,45.695,113.783,47.365,113.783,49.215z
			 M105.483,49.081c0-1.343-0.211-2.432-0.632-3.267c-0.506-0.985-1.25-1.477-2.233-1.477c-0.984,0-1.728,0.508-2.233,1.521
			c-0.421,0.836-0.632,1.91-0.632,3.223c0,1.432,0.225,2.58,0.674,3.445c0.505,0.925,1.235,1.388,2.191,1.388
			c1.011,0,1.755-0.492,2.233-1.478C105.272,51.572,105.483,50.453,105.483,49.081z"/>
		<path fill="#080847" d="M119.702,58.837c-1.84-1.522-3.055-3.581-3.645-6.176c-0.281-1.074-0.421-2.268-0.421-3.58
			c0-1.462,0.168-2.79,0.506-3.983c0.674-2.476,1.917-4.423,3.729-5.84c1.812-1.417,4.023-2.126,6.635-2.126
			c2.612,0,4.81,0.709,6.593,2.126s3.013,3.334,3.687,5.75c0.337,1.253,0.506,2.581,0.506,3.983c0,1.134-0.113,2.268-0.337,3.401
			c-0.59,2.685-1.805,4.811-3.644,6.377c-1.84,1.566-4.122,2.35-6.846,2.35C123.794,61.119,121.541,60.358,119.702,58.837z
			 M128.233,53.131c0.449-0.521,0.758-1.216,0.927-2.081c0.112-0.566,0.168-1.237,0.168-2.014c0-0.687-0.07-1.372-0.21-2.059
			c-0.421-1.76-1.306-2.641-2.654-2.641c-1.405,0-2.29,0.88-2.654,2.641c-0.141,0.508-0.21,1.193-0.21,2.059
			c0,0.776,0.056,1.447,0.168,2.014c0.421,1.909,1.32,2.864,2.696,2.864C127.193,53.914,127.783,53.653,128.233,53.131z"/>
		<path fill="#080847" d="M141.904,59.149c-1.84-1.313-2.76-3.058-2.76-5.235v-0.403c0-0.208,0.056-0.372,0.168-0.492
			c0.112-0.119,0.267-0.179,0.463-0.179h6.32c0.421,0,0.632,0.164,0.632,0.492c0,0.478,0.246,0.865,0.737,1.163
			c0.491,0.299,1.13,0.448,1.917,0.448c0.618,0,1.116-0.097,1.496-0.291s0.569-0.47,0.569-0.828c0-0.417-0.225-0.708-0.674-0.873
			c-0.449-0.163-1.25-0.35-2.401-0.559c-1.068-0.149-2.022-0.328-2.865-0.537s-1.658-0.521-2.443-0.94
			c-2.416-1.253-3.624-3.222-3.624-5.907c0-2.417,0.885-4.333,2.654-5.75s4.101-2.126,6.994-2.126c1.966,0,3.687,0.336,5.161,1.007
			c1.475,0.671,2.619,1.619,3.434,2.842c0.814,1.224,1.222,2.641,1.222,4.251c0,0.329-0.211,0.492-0.632,0.492h-6.109
			c-0.421,0-0.632-0.164-0.632-0.492c0-0.507-0.21-0.902-0.632-1.186c-0.421-0.283-0.983-0.425-1.685-0.425
			c-0.646,0-1.173,0.112-1.58,0.335c-0.407,0.224-0.611,0.53-0.611,0.917c0,0.478,0.267,0.806,0.801,0.984
			c0.533,0.179,1.39,0.358,2.57,0.537c0.14,0.03,0.681,0.12,1.622,0.269c0.94,0.149,1.846,0.388,2.717,0.716
			c1.517,0.567,2.675,1.351,3.476,2.35c0.801,1,1.201,2.305,1.201,3.916c0,2.446-0.899,4.304-2.696,5.571
			c-1.798,1.269-4.228,1.902-7.289,1.902C146.25,61.119,143.744,60.463,141.904,59.149z"/>
		<path fill="#080847" d="M183.508,49.215c0,2.148-0.311,4.058-0.928,5.729c-0.674,1.819-1.727,3.305-3.16,4.452
			c-1.432,1.149-3.145,1.724-5.139,1.724c-2.051,0-3.567-0.687-4.55-2.059c-0.057-0.06-0.112-0.082-0.168-0.067
			c-0.057,0.016-0.084,0.067-0.084,0.156v8.995c0,0.209-0.057,0.373-0.168,0.492c-0.112,0.119-0.267,0.18-0.463,0.18h-6.657
			c-0.197,0-0.351-0.061-0.463-0.18s-0.168-0.283-0.168-0.492V38.161c0-0.208,0.056-0.373,0.168-0.492
			c0.112-0.119,0.267-0.179,0.463-0.179h6.657c0.196,0,0.351,0.06,0.463,0.179c0.112,0.12,0.168,0.284,0.168,0.492v1.343
			c0,0.089,0.028,0.149,0.084,0.179c0.056,0.03,0.112,0,0.168-0.089c1.039-1.64,2.668-2.461,4.887-2.461
			c1.881,0,3.574,0.634,5.076,1.902c1.504,1.269,2.564,2.992,3.182,5.169C183.297,45.695,183.508,47.365,183.508,49.215z
			 M175.207,49.081c0-1.343-0.211-2.432-0.631-3.267c-0.506-0.985-1.251-1.477-2.233-1.477c-0.984,0-1.728,0.508-2.233,1.521
			c-0.421,0.836-0.632,1.91-0.632,3.223c0,1.432,0.225,2.58,0.674,3.445c0.505,0.925,1.235,1.388,2.191,1.388
			c1.011,0,1.755-0.492,2.233-1.478C174.996,51.572,175.207,50.453,175.207,49.081z"/>
		<path fill="#080847" d="M185.992,60.582c-0.112-0.119-0.168-0.283-0.168-0.492V30.106c0-0.208,0.056-0.373,0.168-0.492
			c0.112-0.119,0.267-0.179,0.464-0.179h6.656c0.196,0,0.351,0.061,0.464,0.179c0.111,0.12,0.168,0.284,0.168,0.492V60.09
			c0,0.209-0.057,0.373-0.168,0.492c-0.113,0.119-0.268,0.179-0.464,0.179h-6.656C186.259,60.761,186.104,60.701,185.992,60.582z"/>
		<path fill="#080847" d="M209.248,37.669c0.112-0.119,0.267-0.179,0.464-0.179h6.656c0.196,0,0.352,0.06,0.464,0.179
			c0.111,0.12,0.168,0.284,0.168,0.492V60.09c0,0.209-0.057,0.373-0.168,0.492c-0.112,0.119-0.268,0.179-0.464,0.179h-6.656
			c-0.197,0-0.352-0.06-0.464-0.179s-0.168-0.283-0.168-0.492v-1.478c0-0.089-0.028-0.148-0.084-0.179
			c-0.057-0.029-0.113,0-0.169,0.09c-1.152,1.73-2.949,2.596-5.393,2.596c-2.135,0-3.834-0.739-5.098-2.216
			s-1.896-3.527-1.896-6.153V38.161c0-0.208,0.057-0.373,0.169-0.492c0.112-0.119,0.267-0.179,0.464-0.179h6.656
			c0.196,0,0.351,0.06,0.463,0.179c0.112,0.12,0.169,0.284,0.169,0.492v12.754c0,0.896,0.217,1.619,0.653,2.171
			c0.435,0.553,1.004,0.828,1.706,0.828c0.617,0,1.13-0.202,1.538-0.604c0.406-0.402,0.666-0.946,0.779-1.634
			c0.027-0.059,0.042-0.148,0.042-0.269V38.161C209.08,37.953,209.136,37.789,209.248,37.669z"/>
		<path fill="#080847" d="M222.077,59.149c-1.84-1.313-2.76-3.058-2.76-5.235v-0.403c0-0.208,0.056-0.372,0.169-0.492
			c0.111-0.119,0.267-0.179,0.463-0.179h6.319c0.422,0,0.633,0.164,0.633,0.492c0,0.478,0.245,0.865,0.737,1.163
			c0.49,0.299,1.13,0.448,1.916,0.448c0.618,0,1.117-0.097,1.496-0.291s0.568-0.47,0.568-0.828c0-0.417-0.225-0.708-0.674-0.873
			c-0.449-0.163-1.25-0.35-2.401-0.559c-1.067-0.149-2.022-0.328-2.865-0.537c-0.842-0.209-1.657-0.521-2.443-0.94
			c-2.416-1.253-3.623-3.222-3.623-5.907c0-2.417,0.885-4.333,2.654-5.75s4.101-2.126,6.993-2.126c1.966,0,3.687,0.336,5.161,1.007
			c1.475,0.671,2.619,1.619,3.434,2.842c0.814,1.224,1.222,2.641,1.222,4.251c0,0.329-0.21,0.492-0.632,0.492h-6.108
			c-0.422,0-0.632-0.164-0.632-0.492c0-0.507-0.211-0.902-0.632-1.186c-0.422-0.283-0.984-0.425-1.686-0.425
			c-0.646,0-1.173,0.112-1.58,0.335s-0.61,0.53-0.61,0.917c0,0.478,0.267,0.806,0.8,0.984c0.533,0.179,1.391,0.358,2.57,0.537
			c0.14,0.03,0.681,0.12,1.622,0.269c0.94,0.149,1.847,0.388,2.717,0.716c1.518,0.567,2.676,1.351,3.477,2.35
			c0.8,1,1.2,2.305,1.2,3.916c0,2.446-0.899,4.304-2.696,5.571c-1.798,1.269-4.228,1.902-7.288,1.902
			C226.423,61.119,223.916,60.463,222.077,59.149z"/>
		<path fill="#080847" d="M242.636,59.933c-0.745-0.79-1.117-1.797-1.117-3.021c0-1.253,0.372-2.267,1.117-3.043
			c0.743-0.775,1.691-1.164,2.844-1.164c1.151,0,2.099,0.389,2.844,1.164c0.743,0.776,1.116,1.79,1.116,3.043
			c0,1.193-0.379,2.192-1.138,2.998c-0.758,0.806-1.699,1.209-2.822,1.209C244.327,61.119,243.379,60.724,242.636,59.933z"/>
		<path fill="#080847" d="M265.449,37.669c0.112-0.119,0.267-0.179,0.464-0.179h6.656c0.196,0,0.352,0.06,0.464,0.179
			c0.111,0.12,0.168,0.284,0.168,0.492V60.09c0,0.209-0.057,0.373-0.168,0.492c-0.112,0.119-0.268,0.179-0.464,0.179h-6.656
			c-0.197,0-0.352-0.06-0.464-0.179s-0.168-0.283-0.168-0.492v-1.478c0-0.089-0.028-0.148-0.084-0.179
			c-0.057-0.029-0.113,0-0.169,0.09c-1.152,1.73-2.949,2.596-5.393,2.596c-2.135,0-3.834-0.739-5.098-2.216
			s-1.896-3.527-1.896-6.153V38.161c0-0.208,0.057-0.373,0.169-0.492c0.112-0.119,0.267-0.179,0.464-0.179h6.656
			c0.196,0,0.351,0.06,0.463,0.179c0.112,0.12,0.169,0.284,0.169,0.492v12.754c0,0.896,0.217,1.619,0.653,2.171
			c0.435,0.553,1.004,0.828,1.706,0.828c0.617,0,1.13-0.202,1.538-0.604c0.406-0.402,0.666-0.946,0.779-1.634
			c0.027-0.059,0.042-0.148,0.042-0.269V38.161C265.281,37.953,265.337,37.789,265.449,37.669z"/>
		<path fill="#080847" d="M276.149,60.582c-0.112-0.119-0.168-0.283-0.168-0.492V30.106c0-0.208,0.056-0.373,0.168-0.492
			c0.112-0.119,0.267-0.179,0.464-0.179h6.656c0.196,0,0.351,0.061,0.464,0.179c0.111,0.12,0.168,0.284,0.168,0.492V42.95
			c0,0.089,0.028,0.149,0.085,0.179c0.056,0.03,0.111,0,0.168-0.09l3.581-5.146c0.169-0.269,0.422-0.402,0.759-0.402h7.583
			c0.169,0,0.302,0.038,0.4,0.112c0.098,0.075,0.147,0.172,0.147,0.291c0,0.12-0.042,0.254-0.126,0.403l-5.436,7.787
			c-0.057,0.089-0.057,0.194,0,0.313l6.193,13.56l0.084,0.358c0,0.298-0.183,0.447-0.547,0.447h-6.952
			c-0.365,0-0.618-0.179-0.758-0.537l-3.413-8.592c-0.028-0.06-0.077-0.097-0.147-0.112c-0.07-0.015-0.119,0.008-0.147,0.067
			l-1.39,2.506c-0.057,0.119-0.085,0.209-0.085,0.269v5.729c0,0.209-0.057,0.373-0.168,0.492c-0.113,0.119-0.268,0.179-0.464,0.179
			h-6.656C276.416,60.761,276.262,60.701,276.149,60.582z"/>
	</g>
</g>
</svg>
